<?xml version="1.0" encoding="iso-8859-1"?>
<!-- Generator: Adobe Illustrator 19.0.0, SVG Export Plug-In . SVG Version: 6.00 Build 0)  -->
<svg version="1.1" id="Layer_1" xmlns="http://www.w3.org/2000/svg" xmlns:xlink="http://www.w3.org/1999/xlink" x="0px" y="0px"
	 viewBox="0 0 512 512" style="enable-background:new 0 0 512 512;" xml:space="preserve">
<path style="fill:#003A7F;" d="M256.003,40.75c-38.084,0-68.959,30.877-68.959,68.961h137.913
	C324.957,71.627,294.084,40.75,256.003,40.75z"/>
<rect x="193.238" y="109.711" style="fill:#FFAE18;" width="125.384" height="66.872"/>
<g>
	<rect x="175.705" y="176.583" style="fill:#003A7F;" width="160.597" height="41.795"/>
	<path style="fill:#003A7F;" d="M357.352,501.538H154.647v-24.032c0-11.542,9.356-20.897,20.897-20.897h160.91
		c11.542,0,20.897,9.356,20.897,20.897V501.538z"/>
</g>
<polygon style="fill:#FF3131;" points="331.23,456.608 180.769,456.608 199.577,218.378 312.423,218.378 "/>
<path d="M284.603,352.4c2.675,0,5.348-1.02,7.388-3.06l0.097-0.097c4.08-4.08,4.08-10.696,0-14.778
	c-4.081-4.08-10.695-4.08-14.778,0l-0.097,0.097c-4.08,4.08-4.08,10.696,0,14.778C279.255,351.38,281.929,352.4,284.603,352.4z"/>
<path d="M421.41,491.102h-0.137c-5.77,0-10.449,4.678-10.449,10.449c0,5.771,4.679,10.449,10.449,10.449h0.137
	c5.77,0,10.449-4.678,10.449-10.449C431.858,495.779,427.18,491.102,421.41,491.102z"/>
<path d="M387.47,491.103h-19.669v-13.597c0-15.771-11.709-28.853-26.889-31.023l-17.184-217.656h12.569
	c5.77,0,10.449-4.678,10.449-10.449v-41.795c0-5.771-4.679-10.449-10.449-10.449h-7.225V120.16h21.02
	c5.77,0,10.449-4.678,10.449-10.449s-4.679-10.449-10.449-10.449h-15.396c-4.681-35.442-32.809-63.571-68.247-68.253V10.449
	C266.449,4.678,261.77,0,256.001,0c-5.77,0-10.449,4.678-10.449,10.449v20.562c-35.44,4.683-63.567,32.811-68.248,68.252h-15.396
	c-5.77,0-10.449,4.678-10.449,10.449s4.679,10.449,10.449,10.449h20.883v45.974h-7.088c-5.77,0-10.449,4.678-10.449,10.449v41.795
	c0,5.771,4.679,10.449,10.449,10.449h12.569l-17.183,217.656c-15.18,2.171-26.889,15.253-26.889,31.023v13.597H90.59
	c-5.77,0-10.449,4.678-10.449,10.449c0,5.771,4.679,10.449,10.449,10.449h296.88c5.77,0,10.449-4.678,10.449-10.449
	C397.919,495.781,393.24,491.103,387.47,491.103z M268.091,358.466c-4.08-4.079-10.694-4.08-14.778,0l-58.97,58.97l3.029-38.368
	l108.677-108.677l7.334,92.896l-82.151,82.15c-0.232,0.232-0.446,0.474-0.652,0.721h-35.641c0.485-0.342,0.952-0.719,1.385-1.152
	l71.765-71.764C272.171,369.163,272.171,362.547,268.091,358.466z M315.545,390.68l4.38,55.479h-59.86L315.545,390.68z
	 M303.888,243.024c-0.088,0.083-0.182,0.156-0.267,0.242L199.906,346.982l3.03-38.38c0.042-0.041,0.088-0.076,0.13-0.117
	l79.657-79.658h20.046L303.888,243.024z M256.002,51.199c28.694,0,52.63,20.769,57.571,48.064H198.427
	C203.367,71.968,227.305,51.199,256.002,51.199z M203.688,120.16h104.487v45.974H203.688L203.688,120.16L203.688,120.16z
	 M186.151,187.032h139.698v20.897H186.151V187.032z M253.167,228.827l-47.7,47.7l3.767-47.7H253.167z M165.096,477.506
	c0-5.761,4.687-10.449,10.449-10.449h160.91c5.761,0,10.449,4.687,10.449,10.449v13.583H165.096L165.096,477.506L165.096,477.506z"
	/>
<g>
</g>
<g>
</g>
<g>
</g>
<g>
</g>
<g>
</g>
<g>
</g>
<g>
</g>
<g>
</g>
<g>
</g>
<g>
</g>
<g>
</g>
<g>
</g>
<g>
</g>
<g>
</g>
<g>
</g>
</svg>
